<svg width="24" height="25" viewBox="0 0 24 25" fill="none" xmlns="http://www.w3.org/2000/svg">
<path fill-rule="evenodd" clip-rule="evenodd" d="M18.2371 15.6157C19.0484 14.8833 19.7137 14.1416 20.188 13.5657C20.5762 13.0944 20.7703 12.8588 20.7703 12.5C20.7703 12.1412 20.5762 11.9056 20.188 11.4343C18.768 9.71014 15.6357 6.5 12 6.5C11.1605 6.5 10.3479 6.67115 9.57695 6.95563L12.1238 9.50251C13.6822 9.56577 14.9342 10.8178 14.9975 12.3762L18.2371 15.6157ZM9.39308 11.0144C9.14295 11.4524 9.00001 11.9595 9.00001 12.5C9.00001 14.1569 10.3432 15.5 12 15.5C12.5405 15.5 13.0476 15.3571 13.4856 15.1069L15.7872 17.4085C14.636 18.0555 13.3529 18.5 12 18.5C8.36428 18.5 5.23207 15.2899 3.81198 13.5657C3.42382 13.0944 3.22974 12.8588 3.22974 12.5C3.22974 12.1412 3.42382 11.9056 3.81198 11.4343C4.48541 10.6167 5.54385 9.46489 6.85842 8.47974L9.39308 11.0144Z" fill="white"/>
<path d="M5 2.5L21 18.5" stroke="white" stroke-width="2"/>
</svg>
