<svg width="24" height="25" viewBox="0 0 24 25" fill="none" xmlns="http://www.w3.org/2000/svg">
<path fill-rule="evenodd" clip-rule="evenodd" d="M20.7703 12.5C20.7703 12.1412 20.5762 11.9056 20.188 11.4343C18.768 9.71014 15.6357 6.5 12 6.5C8.36428 6.5 5.23207 9.71014 3.81198 11.4343C3.42382 11.9056 3.22974 12.1412 3.22974 12.5C3.22974 12.8588 3.42382 13.0944 3.81198 13.5657C5.23207 15.2899 8.36428 18.5 12 18.5C15.6357 18.5 18.768 15.2899 20.188 13.5657C20.5762 13.0944 20.7703 12.8588 20.7703 12.5ZM12 15.5C13.6569 15.5 15 14.1569 15 12.5C15 10.8431 13.6569 9.5 12 9.5C10.3432 9.5 9.00002 10.8431 9.00002 12.5C9.00002 14.1569 10.3432 15.5 12 15.5Z" fill="white"/>
</svg>
